<?xml version="1.0" encoding="UTF-8" standalone="no"?>
<!-- Uploaded to: SVG Repo, www.svgrepo.com, Generator: SVG Repo Mixer Tools -->

<svg
   fill="#000000"
   height="800px"
   width="800px"
   version="1.1"
   id="Capa_1"
   viewBox="0 0 471.701 471.701"
   xml:space="preserve"
   sodipodi:docname="heart-liked.svg"
   inkscape:version="1.2.2 (b0a8486541, 2022-12-01)"
   xmlns:inkscape="http://www.inkscape.org/namespaces/inkscape"
   xmlns:sodipodi="http://sodipodi.sourceforge.net/DTD/sodipodi-0.dtd"
   xmlns="http://www.w3.org/2000/svg"
   xmlns:svg="http://www.w3.org/2000/svg"><defs
   id="defs9" /><sodipodi:namedview
   id="namedview7"
   pagecolor="#ffffff"
   bordercolor="#000000"
   borderopacity="0.25"
   inkscape:showpageshadow="2"
   inkscape:pageopacity="0.0"
   inkscape:pagecheckerboard="0"
   inkscape:deskcolor="#d1d1d1"
   showgrid="false"
   inkscape:zoom="0.80605214"
   inkscape:cx="527.88149"
   inkscape:cy="359.77822"
   inkscape:window-width="1920"
   inkscape:window-height="1131"
   inkscape:window-x="0"
   inkscape:window-y="0"
   inkscape:window-maximized="1"
   inkscape:current-layer="Capa_1" />

<path
   style="opacity:1;fill:#ffffff;fill-opacity:1;stroke:#000000;stroke-width:0;stroke-dasharray:none"
   d="M 130.12114,327.6665 C 36.276847,233.706 24.223801,221.34862 19.630697,214.38618 10.803217,201.00509 5.5090974,188.51186 2.0456869,172.8885 -0.5087275,161.36561 -0.70683775,138.30802 1.6540369,127.30543 6.6786503,103.88875 16.286418,85.422639 31.96455,69.048639 42.280967,58.274333 51.598551,51.396341 64.742851,44.852562 81.925619,36.29827 96.755394,32.788604 115.77957,32.774048 c 25.37333,-0.01941 45.07177,5.93347 66.29464,20.034281 5.78164,3.841419 12.55887,9.869748 26.04816,23.169796 10.02829,9.887582 19.42681,18.581519 20.88562,19.319864 3.40083,1.721247 10.3487,1.723744 13.75725,0.0042 1.45881,-0.735647 10.48439,-9.052788 20.05684,-18.482545 21.92877,-21.6019 31.14791,-28.394377 47.83892,-35.24673 16.27275,-6.680645 31.45586,-9.26645 49.86911,-8.493107 29.52879,1.240189 55.97684,12.937974 77.17109,34.132222 16.45673,16.456729 26.99935,36.036041 32.05009,59.522081 2.59961,12.08822 2.59961,33.80717 0,45.89538 -3.68663,17.14292 -10.59279,32.6569 -20.6122,46.3033 -4.05486,5.52269 -31.84299,33.70748 -109.03849,110.59501 -56.97827,56.75094 -103.83258,103.27798 -104.12069,103.39343 -0.28811,0.11543 -47.92456,-47.24955 -105.85877,-105.2555 z"
   id="path19136" /></svg>
